<?xml version="1.0" encoding="iso-8859-1"?>
<!-- Generator: Adobe Illustrator 19.0.0, SVG Export Plug-In . SVG Version: 6.00 Build 0)  -->
<svg version="1.1" id="Layer_1" xmlns="http://www.w3.org/2000/svg" xmlns:xlink="http://www.w3.org/1999/xlink" x="0px" y="0px"
	 viewBox="0 0 512.001 512.001" style="enable-background:new 0 0 512.001 512.001;" xml:space="preserve">
<g>
	<g>
		<path d="M329.898,44.131c-3.18-0.033-6.421,0.035-9.64,0.203c-4.211,0.22-7.219,3.806-7.225,8.021
			c-0.011,7.472,7.886,7.232,8.021,7.225c2.901-0.152,5.822-0.215,8.682-0.183c4.183,0.057,7.669-3.337,7.714-7.552
			C337.495,47.629,334.114,44.176,329.898,44.131z"/>
	</g>
</g>
<g>
	<g>
		<path d="M506.62,45.029L478,16.409c-4.009-4.01-9.538-5.929-15.167-5.25c-5.628,0.673-10.55,3.834-13.503,8.675L416.247,74.09
			c-19.175-14.552-40.267-23.897-62.958-27.838c-4.155-0.726-8.106,2.061-8.827,6.214c-0.722,4.154,2.06,8.106,6.214,8.827
			c26.851,4.665,51.321,17.885,72.729,39.293c23.057,23.057,36.074,55.865,36.653,92.379c0.583,36.847-11.885,75.12-35.107,107.772
			c0,0-3.475,5.926-10.78,5.164c-7.699-0.803-8.605-9.149-8.614-9.232l-6.013-61.339c-1.782-18.176-15.749-23.281-23.722-23.432
			l-54.345-0.225c-2.791-0.011-5.515-1.192-7.456-3.216c-1.934-2.034-2.969-4.808-2.84-7.611l2.33-50.479l0.004-0.119
			c0.267-8.743-3.138-14.146-6.04-17.14c-6.047-6.235-14.313-7.074-17.451-7.153l-64.23-8.712c-4.172-0.567-7.556-3.563-8.623-7.633
			c-1.067-4.071,0.414-8.342,3.772-10.879c17.023-12.868,44.483-29.634,78.636-36.435c4.135-0.823,6.819-4.843,5.996-8.977
			c-0.823-4.134-4.838-6.819-8.977-5.996c-36.991,7.365-66.543,25.427-84.861,39.229c-18.563,13.987-8.543,29.506-8.013,30.721
			c-8.162,6.88-15.686,14.471-22.405,22.649l-0.104,0.128c-15.455,19.664-38.796,55.722-65.822,97.473
			c-14.504,22.406-29.5,45.574-44.828,68.614l-0.101,0.156c-3.086,4.893-88.229,124.774-67.1,170.615
			c7.485,16.238,29.701,24.069,60.369,24.069c32.494,0,94.695-15.726,136.805-35.018c50.333-21.644,94.127-51.355,122.429-71.903
			c50.61-36.743,80.999-74.778,81.374-75.247c16.394,7.426,28.709-1.704,33.243-9.495c24.972-35.225,38.371-76.616,37.738-116.589
			c-0.511-32.214-9.862-61.926-26.687-85.759l54.557-33.267c4.841-2.952,8.003-7.874,8.675-13.503
			C512.542,54.565,510.629,49.038,506.62,45.029z M194.428,451.968l-0.167,0.074c-40.551,18.589-81.914,30.337-116.47,33.082
			c-32.086,2.547-54.327-3.112-61.022-15.531l-0.071-0.13c-16.696-32.291,63.556-150.072,66.634-154.95
			c15.363-23.093,30.369-46.276,44.881-68.695c26.792-41.391,49.935-77.142,64.959-96.27c6.165-7.496,13.075-14.454,20.575-20.757
			c2.984,1.836,6.366,3.087,9.998,3.581l65.739,8.843c1.277,0,5.031,0.454,7.036,2.522c0.46,0.474,1.854,1.911,1.741,5.993
			l-2.327,50.412c-0.32,6.936,2.24,13.801,7.046,18.857c4.81,5.019,11.531,7.913,18.437,7.942l54.168,0.223
			c2.952,0.07,7.96,1.43,8.766,9.657l6.013,61.339c0.262,2.668,1.191,6.277,3.066,9.847
			C392.725,308.904,326.787,391.252,194.428,451.968z M496.712,58.383c-0.114,0.951-0.647,1.781-1.465,2.28L439.06,94.924
			c-1.573-1.754-3.191-3.467-4.858-5.133c-2.007-2.007-4.05-3.926-6.108-5.803l34.271-56.204c0.499-0.817,1.33-1.352,2.281-1.466
			c0.945-0.111,1.883,0.21,2.56,0.886l28.619,28.619C496.501,56.5,496.824,57.434,496.712,58.383z"/>
	</g>
</g>
<g>
	<g>
		<path d="M321.95,346.551c-2.624-3.3-7.424-3.848-10.726-1.225c-5.081,4.039-10.319,8.064-15.568,11.964
			c-3.384,2.515-4.012,7.24-1.576,10.68c3.42,4.828,9.312,2.591,10.68,1.576c5.382-3.999,10.753-8.126,15.964-12.268
			C324.026,354.653,324.574,349.852,321.95,346.551z"/>
	</g>
</g>
<g>
	<g>
		<path d="M285.847,373.84c-2.381-3.479-7.132-4.372-10.611-1.99c-31.257,21.385-63.37,39.389-92.859,52.063
			c0,0-7.52,3.337-4.343,10.168c3.159,6.791,9.043,4.427,10.024,4.008l0.341-0.147c30.388-13.061,63.397-31.559,95.458-53.492
			C287.336,382.07,288.228,377.32,285.847,373.84z"/>
	</g>
</g>
<g>
</g>
<g>
</g>
<g>
</g>
<g>
</g>
<g>
</g>
<g>
</g>
<g>
</g>
<g>
</g>
<g>
</g>
<g>
</g>
<g>
</g>
<g>
</g>
<g>
</g>
<g>
</g>
<g>
</g>
</svg>
